<?xml version="1.0" standalone="no"?>
<!DOCTYPE svg PUBLIC "-//W3C//DTD SVG 20010904//EN"
 "http://www.w3.org/TR/2001/REC-SVG-20010904/DTD/svg10.dtd">
<svg version="1.0" xmlns="http://www.w3.org/2000/svg"
 width="460.000000pt" height="460.000000pt" viewBox="0 0 460.000000 460.000000"
 preserveAspectRatio="xMidYMid meet">
<metadata>
Created by potrace 1.16, written by Peter Selinger 2001-2019
</metadata>
<g transform="translate(0.000000,460.000000) scale(0.100000,-0.100000)"
fill="#000000" stroke="none">
<path d="M1751 4483 c-13 -9 -40 -34 -60 -56 -60 -67 -67 -72 -134 -84 -36 -7
-87 -24 -114 -38 -55 -27 -70 -54 -91 -167 -12 -62 -38 -107 -62 -108 -8 0
-44 -19 -79 -41 -59 -40 -143 -132 -180 -200 -97 -178 -120 -221 -135 -262
-10 -28 -22 -44 -28 -41 -6 4 -8 2 -5 -3 4 -6 -7 -44 -24 -85 -54 -129 -91
-246 -114 -368 -9 -47 -27 -130 -40 -185 -13 -55 -28 -143 -34 -196 -11 -94
-16 -108 -74 -204 -7 -11 -22 -32 -34 -48 -37 -46 -99 -187 -122 -277 -32
-123 -36 -199 -16 -310 10 -52 20 -120 22 -151 5 -53 3 -57 -43 -122 -73 -100
-93 -142 -87 -180 7 -52 41 -146 97 -269 20 -45 23 -48 62 -48 22 0 45 5 52
12 26 26 10 99 -33 150 -33 39 -31 70 4 110 31 36 117 73 144 62 28 -10 39
-75 28 -162 -6 -42 -15 -120 -22 -172 -6 -52 -22 -126 -35 -165 -13 -38 -24
-76 -24 -83 0 -15 39 -73 57 -85 7 -4 13 -14 13 -22 0 -7 16 -28 35 -46 19
-19 35 -39 35 -46 0 -7 9 -17 21 -23 11 -6 29 -26 39 -43 11 -18 20 -28 20
-23 0 6 13 -3 30 -19 16 -15 27 -31 25 -35 -2 -3 12 -14 31 -25 19 -10 34 -24
34 -32 0 -7 10 -18 23 -22 12 -5 35 -23 50 -40 16 -17 35 -31 42 -31 7 0 15
-4 17 -8 2 -5 32 -29 68 -53 36 -24 70 -49 75 -55 6 -7 31 -21 56 -33 25 -11
52 -27 59 -36 7 -8 23 -15 36 -15 12 0 29 -6 36 -13 12 -12 60 -36 141 -71 25
-11 66 -16 122 -16 l85 0 0 39 c0 21 -7 58 -16 82 -40 111 -68 269 -45 254 12
-7 57 -87 67 -118 4 -12 17 -36 30 -53 21 -27 24 -42 24 -117 l0 -87 635 0
c566 0 638 2 672 16 81 35 129 59 141 71 7 7 24 13 36 13 13 0 29 7 36 15 7 9
34 25 59 36 25 12 51 26 56 33 6 6 39 31 75 55 36 24 67 48 68 53 2 4 10 8 17
8 7 0 26 14 42 31 15 17 38 35 51 40 12 4 22 15 22 22 0 8 15 22 34 32 19 11
33 22 31 25 -2 4 9 20 25 35 17 16 30 25 30 19 0 -5 9 5 20 23 10 17 28 37 39
43 12 6 21 16 21 23 0 7 16 27 35 46 19 18 35 39 35 46 0 8 6 18 13 22 7 4 30
35 51 67 22 33 47 67 58 78 10 10 18 28 18 41 0 12 16 40 35 61 19 22 35 50
35 62 0 12 3 24 8 26 21 9 115 243 125 314 3 17 10 41 16 52 6 12 14 41 17 64
4 24 12 61 20 83 8 22 13 49 13 60 -1 17 -2 16 -8 -4 -6 -21 -10 -18 -49 40
-23 35 -58 85 -77 111 -125 169 -163 242 -172 328 l-6 54 26 -17 c34 -22 65
-21 105 3 27 16 32 26 32 56 0 43 -58 182 -95 227 -122 150 -158 215 -185 337
-13 59 -24 161 -30 279 -6 102 -12 200 -15 216 -3 17 -7 55 -9 85 -3 30 -16
87 -30 126 -14 39 -26 77 -26 84 0 7 -16 35 -35 61 -19 27 -35 52 -35 55 0 24
-212 218 -254 233 -15 6 -80 54 -84 64 -2 4 -10 7 -18 7 -8 0 -31 16 -53 35
-21 19 -41 35 -44 35 -4 0 -26 21 -49 46 -24 25 -71 73 -105 105 -33 33 -66
72 -73 87 -7 15 -29 42 -50 60 -62 53 -181 61 -284 18 -71 -29 -102 -22 -160
37 -28 28 -64 58 -79 65 -33 14 -102 16 -143 3 -174 -54 -257 -50 -395 21 -46
23 -70 28 -126 28 -48 0 -76 -5 -92 -17z m530 -687 c47 -40 185 -89 313 -112
184 -32 328 -98 386 -176 32 -43 90 -129 90 -133 0 -2 14 -34 31 -71 35 -75
53 -166 74 -369 18 -173 19 -266 4 -615 -13 -309 -14 -311 -100 -420 -85 -107
-188 -199 -294 -260 l-60 -35 -6 -230 c-5 -205 -8 -237 -28 -293 -47 -129
-151 -219 -298 -257 -72 -19 -114 -19 -186 0 -107 28 -180 75 -242 156 -68 88
-78 136 -84 393 l-6 230 -61 35 c-95 56 -163 112 -253 209 -17 19 -31 36 -31
38 0 3 -13 22 -29 42 -60 78 -105 184 -115 277 -47 408 -29 812 45 1027 38
112 113 231 196 313 67 67 110 86 288 126 112 25 245 85 287 130 15 16 30 29
33 29 4 0 25 -15 46 -34z m563 -3562 c9 -3 16 -17 16 -30 0 -33 27 -72 63 -90
25 -14 28 -20 23 -46 -11 -54 -55 -72 -101 -42 -24 16 -25 21 -25 115 0 55 2
99 4 99 2 0 11 -3 20 -6z"/>
<path d="M1740 3186 c-91 -32 -129 -53 -172 -96 -44 -44 -48 -67 -12 -76 20
-5 32 0 58 25 18 17 62 46 97 64 62 31 68 32 197 33 140 2 166 9 146 42 -15
24 -46 30 -154 31 -75 0 -109 -4 -160 -23z"/>
<path d="M2581 3202 c-13 -4 -29 -15 -35 -24 -20 -33 6 -40 146 -42 129 -1
135 -2 197 -33 35 -18 79 -47 97 -64 26 -25 38 -30 58 -25 15 4 26 13 26 23 0
31 -84 99 -166 133 -71 31 -90 34 -189 36 -60 2 -121 0 -134 -4z"/>
<path d="M1792 2880 c-66 -41 -67 -120 -2 -165 46 -32 93 -29 128 8 48 51 35
138 -24 163 -45 19 -63 18 -102 -6z"/>
<path d="M2704 2886 c-57 -25 -69 -113 -22 -163 35 -37 82 -40 128 -8 65 45
64 124 -2 165 -38 23 -61 24 -104 6z"/>
<path d="M2110 2082 c-30 -24 -21 -68 16 -82 14 -6 92 -10 174 -10 82 0 160 4
174 10 37 14 46 58 16 82 -20 16 -42 18 -190 18 -148 0 -170 -2 -190 -18z"/>
</g>
</svg>
